<svg xmlns="http://www.w3.org/2000/svg" viewBox="0 0 512 512">
  <defs>
    <linearGradient id="bg" x1="0" y1="0" x2="0" y2="1">
      <stop offset="0%" stop-color="#1e1e2e"/>
      <stop offset="100%" stop-color="#0f0f17"/>
    </linearGradient>
    <linearGradient id="accent" x1="0" y1="0" x2="1" y2="1">
      <stop offset="0%" stop-color="#818cf8"/>
      <stop offset="100%" stop-color="#6366f1"/>
    </linearGradient>
  </defs>
  <!-- Full bleed background for maskable icon (no border radius) -->
  <rect width="512" height="512" fill="url(#bg)"/>
  <!-- Stylized "A" letterform — centered in safe zone (inner 80%) -->
  <path d="M256 128 L358 362 C360 367 357 372 352 372 L320 372 C315 372 311 369 309 364 L289 314 L223 314 L203 364 C201 369 197 372 192 372 L160 372 C155 372 152 367 154 362 L256 128z M256 184 L234 286 L278 286 L256 184z" fill="white" fill-opacity="0.92"/>
  <!-- Indigo dot accent -->
  <circle cx="344" cy="162" r="26" fill="url(#accent)"/>
  <!-- Subtle sparkle on dot -->
  <circle cx="335" cy="153" r="4.5" fill="white" fill-opacity="0.4"/>
</svg>
