<svg xmlns="http://www.w3.org/2000/svg" viewBox="0 0 512 512">
  <defs>
    <linearGradient id="bg" x1="0" y1="0" x2="0" y2="1">
      <stop offset="0%" stop-color="#1e1e2e"/>
      <stop offset="100%" stop-color="#0f0f17"/>
    </linearGradient>
    <linearGradient id="accent" x1="0" y1="0" x2="1" y2="1">
      <stop offset="0%" stop-color="#818cf8"/>
      <stop offset="100%" stop-color="#6366f1"/>
    </linearGradient>
  </defs>
  <rect width="512" height="512" rx="112" fill="url(#bg)"/>
  <rect x="1" y="1" width="510" height="510" rx="111" fill="none" stroke="white" stroke-opacity="0.06"/>
  <path d="M256 108 L368 372 C370 377 367 382 362 382 L326 382 C321 382 317 379 315 374 L293 320 L219 320 L197 374 C195 379 191 382 186 382 L150 382 C145 382 142 377 144 372 L256 108z M256 168 L232 290 L280 290 L256 168z" fill="white" fill-opacity="0.92"/>
  <circle cx="352" cy="152" r="28" fill="url(#accent)"/>
  <circle cx="342" cy="142" r="5" fill="white" fill-opacity="0.4"/>
</svg>
